<svg width="40.000000" height="27.473145" viewBox="0 0 40 27.4731" fill="none" xmlns="http://www.w3.org/2000/svg" xmlns:xlink="http://www.w3.org/1999/xlink">
	<desc>
			Created with Pixso.
	</desc>
	<defs/>
	<path id="quotes" d="M8.78052 9.99023C13.6083 9.99023 17.522 13.9041 17.522 18.7317C17.522 23.5594 13.6083 27.4731 8.78052 27.4731C3.9527 27.4731 0.0390015 23.5594 0.0390015 18.7317L0 17.4829C0 7.82739 7.82733 0 17.4829 0L17.4829 4.99512C14.1473 4.99512 11.0114 6.29407 8.65271 8.65271C8.19873 9.10681 7.78436 9.58997 7.41058 10.0974C7.85693 10.0272 8.31439 9.99023 8.78052 9.99023ZM31.2585 9.99023C36.0862 9.99023 40 13.9041 40 18.7317C40 23.5594 36.0862 27.4731 31.2585 27.4731C26.4308 27.4731 22.5171 23.5594 22.5171 18.7317L22.478 17.4829C22.478 7.82739 30.3053 0 39.961 0L39.961 4.99512C36.6255 4.99512 33.4893 6.29407 31.1308 8.65271C30.6767 9.10681 30.2623 9.58997 29.8885 10.0974C30.3349 10.0272 30.7924 9.99023 31.2585 9.99023Z" fill="#5D6AFB" fill-opacity="1.000000" fill-rule="nonzero"/>
</svg>
